<svg width="77" height="17" fill="none" xmlns="http://www.w3.org/2000/svg"><path d="M16.908 12.783V6.65s.393-.033.687-.033c.687 0 .994.51.994.857.104-.177.72-1.034 1.752-1.034 1.367 0 2.432 1.204 2.432 2.917v3.426h-1.752v-3.08c0-1.033-.34-1.83-1.366-1.83-.687 0-.962.457-.994.627v4.283h-1.753Zm49.32 0h-1.752V7.166s.464-.039.758-.039c.68 0 .994.517.994.857v4.799ZM57.944 8.16c-1.092-.176-2 .242-2.19.857v3.766H54V6.65s.327-.033.621-.033c.687 0 .994.51.994.857.105-.177.615-.929 1.988-.929.17 0 .307.033.34.072V8.16Zm13.031 0c-1.099-.176-2 .242-2.197.857v3.766h-1.746V6.65s.32-.033.615-.033c.686 0 .994.51.994.857.104-.177.62-.929 1.987-.929.177 0 .314.033.347.072V8.16ZM37.648 6.44c-.941 0-1.667.66-1.942.942-.438-.588-1.085-.942-1.824-.942-1.033 0-1.647.857-1.752 1.034 0-.347-.307-.857-.994-.857-.294 0-.686.033-.686.033v6.133h1.752V8.5c.033-.17.307-.628.994-.628 1.026 0 1.373.798 1.373 1.831v3.08h1.746V9.357a3.624 3.624 0 0 0-.17-1.125c.163-.19.457-.36.993-.36 1.027 0 1.373.798 1.373 1.831v3.08h1.746V9.357c0-1.713-.889-2.917-2.609-2.917Zm-8.192.177v6.133s-.393.033-.687.033c-.68 0-.994-.34-.994-.857-.098.177-.752 1.033-1.778 1.033-1.373 0-2.4-1.203-2.4-2.916V6.617h1.746v3.086c0 1.027.307 1.824 1.34 1.824.68 0 .994-.457 1.027-.627V6.617h1.746Zm11.658-2.713.72-.033c.686 0 1.026.346 1.026.856v2.4a2.491 2.491 0 0 1 1.68-.687c1.373 0 2.576 1.236 2.576 3.296 0 1.713-1.17 3.223-3.263 3.223-1.196 0-2.57-.379-2.74-.516v-8.54Zm9.566 2.595c2.465 0 2.537 2.112 2.537 2.518.006.381-.04.762-.138 1.13h-3.635c0 .923.614 1.472 1.648 1.472.34 0 .96-.105.96-.105.478-.098 1.06.242 1.06.929-.615.34-1.334.516-2.367.516-1.543 0-3.086-1.033-3.086-3.256 0-1.89 1.203-3.204 3.02-3.204Zm23.48 0c2.47 0 2.536 2.112 2.536 2.518 0 .51-.065.922-.13 1.13H72.93c0 .923.615 1.472 1.641 1.472.347 0 .961-.105.961-.105.484-.098 1.066.242 1.066.929-.621.34-1.34.516-2.367.516-1.543 0-3.086-1.033-3.086-3.256 0-1.89 1.203-3.204 3.014-3.204Zm-15.425 6.284V4.217h4.97v.68c0 .687-.51 1.066-1.027 1.066H60.48v2.02h2.537v1.544H60.48v3.256h-1.746Zm5.584-7.533a1.033 1.033 0 1 0 1.033-1.033h-1.033V5.25ZM43.997 7.84c-.654 0-1.066.32-1.137.49v3.184c.176.105.653.177.823.177 1.034 0 1.694-.589 1.694-1.955 0-1.033-.49-1.896-1.38-1.896Zm6.61-.196c-.718 0-1.163.686-1.163 1.3H51.6c.072-.614-.34-1.3-.993-1.3Zm23.487 0c-.72 0-1.164.686-1.164 1.3h2.158c.072-.614-.34-1.3-.994-1.3Z" fill="#0A141E"/><path d="M1.994 14.49C1.046 13.423.458 12.056.458 10.56c0-2.4 1.366-4.8 3.08-5.486.346 1.026.869 2.413 3.085 2.4-2.4-4.8 1.373-7.2 2.06-7.2 0 2.237 1.419 3.767 2.72 5.415l-3.662 6.558-2.818-3.008-2.929 5.25Zm6.002-.164-2.818-3.008-2.249 4.034a6.708 6.708 0 0 0 4.041 1.373c3.426 0 6.512-2.74 6.512-6.165 0-1.51-.549-2.7-1.275-3.78l-4.21 7.546Z" fill="url(#a)"/><path d="M1.994 14.49C1.046 13.423.458 12.056.458 10.56c0-2.4 1.366-4.8 3.08-5.486.346 1.026.869 2.413 3.085 2.4-2.4-4.8 1.373-7.2 2.06-7.2 0 2.237 1.419 3.767 2.72 5.415l-3.662 6.558-2.818-3.008-2.929 5.25Zm6.002-.164-2.818-3.008-2.249 4.034a6.708 6.708 0 0 0 4.041 1.373c3.426 0 6.512-2.74 6.512-6.165 0-1.51-.549-2.7-1.275-3.78l-4.21 7.546Z" fill="url(#b)"/><path d="M4.328 10.311 2.001 14.49C1.046 13.423.458 12.057.458 10.56c0-2.399 1.366-4.799 3.08-5.485-.883 1.471-.746 3.204.79 5.237Zm.85 1.007L2.93 15.352l.164.118c2.922 2.053 4.851-1.197 2.085-4.152Z" fill="url(#c)"/><path d="M12.207 6.78c.726 1.08 1.275 2.27 1.275 3.78 0 3.426-3.086 6.165-6.512 6.165a6.624 6.624 0 0 1-2.72-.588c2.354 1.026 3.465-.007 3.753-1.818l4.204-7.539Zm-.804-1.091C10.102 4.04 8.683 2.51 8.683.275c-.686 0-4.46 2.4-2.06 7.198a14.398 14.398 0 0 1 1.354 4.355l3.426-6.14Z" fill="url(#d)"/><path d="M12.207 6.78c.726 1.08 1.275 2.27 1.275 3.78 0 2.752-1.994 5.06-4.55 5.865 2.353-.778 3.949-3.917 1.837-7.075l1.438-2.57ZM9.958 8.271l1.445-2.583c-1.301-1.647-2.72-3.177-2.72-5.413C7.696 1.582 6.806 4.04 9.958 8.27Z" fill="url(#e)"/><path d="M4.328 10.311 2.001 14.49C1.046 13.423.458 12.057.458 10.56c0-2.399 1.366-4.799 3.08-5.485-.883 1.471-.746 3.204.79 5.237Zm.85 1.007L2.93 15.352l.164.118c2.922 2.053 4.851-1.197 2.085-4.152Z" fill="url(#f)"/><path d="M12.207 6.78c.726 1.08 1.275 2.27 1.275 3.78 0 3.426-3.086 6.165-6.512 6.165a6.624 6.624 0 0 1-2.72-.588c2.354 1.026 3.465-.007 3.753-1.818l4.204-7.539Zm-.804-1.091C10.102 4.04 8.683 2.51 8.683.275c-.686 0-4.46 2.4-2.06 7.198a14.398 14.398 0 0 1 1.354 4.355l3.426-6.14Z" fill="url(#g)"/><path d="M12.207 6.78c.726 1.08 1.275 2.27 1.275 3.78 0 2.752-1.994 5.06-4.55 5.865 2.353-.778 3.949-3.917 1.837-7.075l1.438-2.57ZM9.958 8.271l1.445-2.583c-1.301-1.647-2.72-3.177-2.72-5.413C7.696 1.582 6.806 4.04 9.958 8.27Z" fill="url(#h)"/><path d="M13.482 4.714a.96.96 0 1 1-1.922 0c0-.686.621-.686.275-1.713 1.373.34 1.647 1.197 1.647 1.713Z" fill="url(#i)"/><defs><linearGradient id="a" x1="8.615" y1="8.486" x2="2.107" y2="12.165" gradientUnits="userSpaceOnUse"><stop offset=".18" stop-color="#FFE187"/><stop offset=".24" stop-color="#FFD986"/><stop offset=".33" stop-color="#FFC384"/><stop offset=".44" stop-color="#FFA081"/><stop offset=".55" stop-color="#FF737D"/></linearGradient><linearGradient id="b" x1="12.645" y1="9.4" x2="5.289" y2="8.102" gradientUnits="userSpaceOnUse"><stop offset=".24" stop-color="#FFE187"/><stop offset=".28" stop-color="#FFE187" stop-opacity=".95"/><stop offset=".36" stop-color="#FFE187" stop-opacity=".83"/><stop offset=".46" stop-color="#FFE187" stop-opacity=".62"/><stop offset=".58" stop-color="#FFE187" stop-opacity=".34"/><stop offset=".72" stop-color="#FFE187" stop-opacity="0"/></linearGradient><linearGradient id="c" x1="3.486" y1="5.072" x2="3.486" y2="16.115" gradientUnits="userSpaceOnUse"><stop offset=".14" stop-color="#FFE187"/><stop offset=".35" stop-color="#FFC084"/><stop offset=".78" stop-color="#FF737D"/></linearGradient><linearGradient id="d" x1="7.741" y1=".353" x2="9.159" y2="16.561" gradientUnits="userSpaceOnUse"><stop offset=".25" stop-color="#FFE187"/><stop offset=".33" stop-color="#FFD286"/><stop offset=".67" stop-color="#FF8E7F"/><stop offset=".83" stop-color="#FF737D"/></linearGradient><linearGradient id="e" x1="12.763" y1="7.215" x2="6.538" y2="9" gradientUnits="userSpaceOnUse"><stop offset=".04" stop-color="#FFE187"/><stop offset=".13" stop-color="#FFD686"/><stop offset=".29" stop-color="#FFBA83"/><stop offset=".49" stop-color="#FF8B7F"/><stop offset=".59" stop-color="#FF737D"/></linearGradient><linearGradient id="f" x1="5.877" y1="9.863" x2=".705" y2="12.385" gradientUnits="userSpaceOnUse"><stop stop-color="#FFE187"/><stop offset=".03" stop-color="#FFE187" stop-opacity=".92"/><stop offset=".12" stop-color="#FFE187" stop-opacity=".71"/><stop offset=".21" stop-color="#FFE187" stop-opacity=".52"/><stop offset=".31" stop-color="#FFE187" stop-opacity=".36"/><stop offset=".4" stop-color="#FFE187" stop-opacity=".23"/><stop offset=".5" stop-color="#FFE187" stop-opacity=".13"/><stop offset=".6" stop-color="#FFE187" stop-opacity=".06"/><stop offset=".71" stop-color="#FFE187" stop-opacity=".01"/><stop offset=".83" stop-color="#FFE187" stop-opacity="0"/></linearGradient><linearGradient id="g" x1="13.058" y1="7.625" x2="3.061" y2="9.387" gradientUnits="userSpaceOnUse"><stop offset=".11" stop-color="#FFE187"/><stop offset=".15" stop-color="#FFE187" stop-opacity=".8"/><stop offset=".19" stop-color="#FFE187" stop-opacity=".62"/><stop offset=".23" stop-color="#FFE187" stop-opacity=".45"/><stop offset=".27" stop-color="#FFE187" stop-opacity=".31"/><stop offset=".32" stop-color="#FFE187" stop-opacity=".2"/><stop offset=".37" stop-color="#FFE187" stop-opacity=".11"/><stop offset=".42" stop-color="#FFE187" stop-opacity=".05"/><stop offset=".48" stop-color="#FFE187" stop-opacity=".01"/><stop offset=".57" stop-color="#FFE187" stop-opacity="0"/></linearGradient><linearGradient id="h" x1="12.175" y1="15.101" x2="8.737" y2="7.195" gradientUnits="userSpaceOnUse"><stop offset=".41" stop-color="#FF737D"/><stop offset=".46" stop-color="#FF737D" stop-opacity=".95"/><stop offset=".54" stop-color="#FF737D" stop-opacity=".83"/><stop offset=".65" stop-color="#FF737D" stop-opacity=".62"/><stop offset=".79" stop-color="#FF737D" stop-opacity=".34"/><stop offset=".93" stop-color="#FF737D" stop-opacity="0"/></linearGradient><linearGradient id="i" x1="11.385" y1="3.45" x2="13.795" y2="5.86" gradientUnits="userSpaceOnUse"><stop offset=".11" stop-color="#FFE187"/><stop offset=".35" stop-color="#FFC084"/><stop offset=".84" stop-color="#FF737D"/></linearGradient></defs></svg>