<svg width="16" height="19" fill="none" xmlns="http://www.w3.org/2000/svg"><path d="M1.95 16.414C.788 15.185.072 13.609.072 11.875c0-2.767 1.663-5.534 3.757-6.326.414 1.192 1.05 2.782 3.75 2.767-2.922-5.534 1.67-8.3 2.507-8.3 0 2.585 1.735 4.342 3.311 6.242l-4.458 7.57-3.422-3.468-3.567 6.054Zm7.3-.189-3.423-3.468-2.738 4.652A8.483 8.483 0 0 0 8 18.993c4.171 0 7.928-3.167 7.928-7.118 0-1.734-.668-3.114-1.552-4.358L9.25 16.226Z" fill="url(#a)"/><path d="M1.95 16.414C.788 15.185.072 13.609.072 11.875c0-2.767 1.663-5.534 3.757-6.326.414 1.192 1.05 2.782 3.75 2.767-2.922-5.534 1.67-8.3 2.507-8.3 0 2.585 1.735 4.342 3.311 6.242l-4.458 7.57-3.422-3.468-3.567 6.054Zm7.3-.189-3.423-3.468-2.738 4.652A8.483 8.483 0 0 0 8 18.993c4.171 0 7.928-3.167 7.928-7.118 0-1.734-.668-3.114-1.552-4.358L9.25 16.226Z" fill="url(#b)"/><path d="M4.784 11.596 1.95 16.414C.788 15.185.072 13.609.072 11.875c0-2.767 1.663-5.534 3.757-6.326-1.083 1.704-.915 3.695.955 6.047Zm1.043 1.161L3.089 17.41l.19.136c3.559 2.36 5.907-1.38 2.548-4.788Z" fill="url(#c)"/><path d="M14.376 7.517c.884 1.244 1.553 2.624 1.553 4.358 0 3.95-3.758 7.117-7.929 7.117a8.453 8.453 0 0 1-3.311-.686c2.865 1.192 4.219-.007 4.569-2.096l5.118-8.693Zm-.979-1.259c-1.576-1.9-3.311-3.657-3.311-6.243-.836 0-5.43 2.767-2.508 8.301a16.045 16.045 0 0 1 1.648 5.03l4.171-7.088Z" fill="url(#d)"/><path d="M14.376 7.517c.884 1.244 1.552 2.624 1.552 4.358 0 3.174-2.428 5.843-5.54 6.77 2.866-.904 4.808-4.516 2.237-8.157l1.751-2.97Zm-2.738 1.727 1.76-2.986c-1.577-1.9-3.312-3.657-3.312-6.243C8.884 1.531 7.8 4.358 11.638 9.244Z" fill="url(#e)"/><path d="M4.784 11.596 1.95 16.414C.788 15.185.072 13.609.072 11.875c0-2.767 1.663-5.534 3.757-6.326-1.083 1.704-.915 3.695.955 6.047Zm1.043 1.161L3.089 17.41l.19.136c3.559 2.36 5.907-1.38 2.548-4.788Z" fill="url(#f)"/><path d="M14.376 7.517c.884 1.244 1.553 2.624 1.553 4.358 0 3.95-3.758 7.117-7.929 7.117a8.453 8.453 0 0 1-3.311-.686c2.865 1.192 4.219-.007 4.569-2.096l5.118-8.693Zm-.979-1.259c-1.576-1.9-3.311-3.657-3.311-6.243-.836 0-5.43 2.767-2.508 8.301a16.045 16.045 0 0 1 1.648 5.03l4.171-7.088Z" fill="url(#g)"/><path d="M14.376 7.517c.884 1.244 1.552 2.624 1.552 4.358 0 3.174-2.428 5.843-5.54 6.77 2.866-.904 4.808-4.516 2.237-8.157l1.751-2.97Zm-2.738 1.727 1.76-2.986c-1.577-1.9-3.312-3.657-3.312-6.243C8.884 1.531 7.8 4.358 11.638 9.244Z" fill="url(#h)"/><path d="M15.928 5.135c0 .294-.123.575-.342.783-.22.208-.517.325-.828.325-.31 0-.608-.117-.827-.325a1.08 1.08 0 0 1-.343-.783c0-.792.756-.792.335-1.976 1.671.4 2.005 1.387 2.005 1.976Z" fill="url(#i)"/><defs><linearGradient id="a" x1="10.004" y1="9.487" x2="2.295" y2="14.089" gradientUnits="userSpaceOnUse"><stop offset=".18" stop-color="#FFE187"/><stop offset=".24" stop-color="#FFD986"/><stop offset=".33" stop-color="#FFC384"/><stop offset=".44" stop-color="#FFA081"/><stop offset=".55" stop-color="#FF737D"/></linearGradient><linearGradient id="b" x1="14.91" y1="10.541" x2="5.986" y2="8.88" gradientUnits="userSpaceOnUse"><stop offset=".24" stop-color="#FFE187"/><stop offset=".28" stop-color="#FFE187" stop-opacity=".95"/><stop offset=".36" stop-color="#FFE187" stop-opacity=".83"/><stop offset=".46" stop-color="#FFE187" stop-opacity=".62"/><stop offset=".58" stop-color="#FFE187" stop-opacity=".34"/><stop offset=".72" stop-color="#FFE187" stop-opacity="0"/></linearGradient><linearGradient id="c" x1="3.76" y1="5.551" x2="3.76" y2="18.285" gradientUnits="userSpaceOnUse"><stop offset=".14" stop-color="#FFE187"/><stop offset=".35" stop-color="#FFC084"/><stop offset=".78" stop-color="#FF737D"/></linearGradient><linearGradient id="d" x1="8.94" y1=".109" x2="10.49" y2="18.814" gradientUnits="userSpaceOnUse"><stop offset=".25" stop-color="#FFE187"/><stop offset=".33" stop-color="#FFD286"/><stop offset=".67" stop-color="#FF8E7F"/><stop offset=".83" stop-color="#FF737D"/></linearGradient><linearGradient id="e" x1="15.054" y1="8.022" x2="7.542" y2="10.297" gradientUnits="userSpaceOnUse"><stop offset=".04" stop-color="#FFE187"/><stop offset=".13" stop-color="#FFD686"/><stop offset=".29" stop-color="#FFBA83"/><stop offset=".49" stop-color="#FF8B7F"/><stop offset=".59" stop-color="#FF737D"/></linearGradient><linearGradient id="f" x1="6.67" y1="11.075" x2=".509" y2="14.248" gradientUnits="userSpaceOnUse"><stop stop-color="#FFE187"/><stop offset=".03" stop-color="#FFE187" stop-opacity=".92"/><stop offset=".12" stop-color="#FFE187" stop-opacity=".71"/><stop offset=".21" stop-color="#FFE187" stop-opacity=".52"/><stop offset=".31" stop-color="#FFE187" stop-opacity=".36"/><stop offset=".4" stop-color="#FFE187" stop-opacity=".23"/><stop offset=".5" stop-color="#FFE187" stop-opacity=".13"/><stop offset=".6" stop-color="#FFE187" stop-opacity=".06"/><stop offset=".71" stop-color="#FFE187" stop-opacity=".01"/><stop offset=".83" stop-color="#FFE187" stop-opacity="0"/></linearGradient><linearGradient id="g" x1="15.413" y1="8.494" x2="3.283" y2="10.752" gradientUnits="userSpaceOnUse"><stop offset=".11" stop-color="#FFE187"/><stop offset=".15" stop-color="#FFE187" stop-opacity=".8"/><stop offset=".19" stop-color="#FFE187" stop-opacity=".62"/><stop offset=".23" stop-color="#FFE187" stop-opacity=".45"/><stop offset=".27" stop-color="#FFE187" stop-opacity=".31"/><stop offset=".32" stop-color="#FFE187" stop-opacity=".2"/><stop offset=".37" stop-color="#FFE187" stop-opacity=".11"/><stop offset=".42" stop-color="#FFE187" stop-opacity=".05"/><stop offset=".48" stop-color="#FFE187" stop-opacity=".01"/><stop offset=".57" stop-color="#FFE187" stop-opacity="0"/></linearGradient><linearGradient id="h" x1="14.337" y1="17.116" x2="10.52" y2="7.847" gradientUnits="userSpaceOnUse"><stop offset=".41" stop-color="#FF737D"/><stop offset=".46" stop-color="#FF737D" stop-opacity=".95"/><stop offset=".54" stop-color="#FF737D" stop-opacity=".83"/><stop offset=".65" stop-color="#FF737D" stop-opacity=".62"/><stop offset=".79" stop-color="#FF737D" stop-opacity=".34"/><stop offset=".93" stop-color="#FF737D" stop-opacity="0"/></linearGradient><linearGradient id="i" x1="13.376" y1="3.681" x2="16.151" y2="6.61" gradientUnits="userSpaceOnUse"><stop offset=".11" stop-color="#FFE187"/><stop offset=".35" stop-color="#FFC084"/><stop offset=".84" stop-color="#FF737D"/></linearGradient></defs></svg>