<svg width="24" height="16" fill="none" xmlns="http://www.w3.org/2000/svg"><path d="M10.027 3.21h2.04l.25 4.112 2.1-4.014h1.706l.274 4.014 1.977-4.111h2.142l-3.699 7.159h-1.765l-.443-3.803-1.894 3.803H10.72l-.694-7.16Z" fill="#BFBFBF"/><path d="m21.388 11.575-.029.143-.426 1.257-1.165-4.102-.009-.046-1.048 3.957H0v.39h19.01l.01-.034-.006.032.725-1.165 1.106 3.636.077.351.788-4.027h2.183v-.392h-2.505ZM5.602 6.467c.466 0 .834-.09 1.111-.277a.867.867 0 0 0 .412-.754c0-.2-.063-.365-.192-.5-.168-.171-.471-.254-.908-.254H4.914L4.428 6.47h1.174v-.003Zm-2.28-3.553h2.791c.62 0 1.14.068 1.554.2.417.134.746.325.992.571.197.197.34.426.431.683.091.257.137.534.137.831 0 .62-.18 1.163-.537 1.623-.357.462-.917.794-1.68 1l1.143 2.496H5.891l-.983-2.242h-.909l-.602 2.242H1.334l1.988-7.404Z" fill="#BFBFBF"/><path d="M5.245 6.11c.465 0 .834-.091 1.111-.277a.868.868 0 0 0 .411-.757c0-.2-.062-.365-.19-.5-.17-.171-.472-.254-.91-.254h-1.11L4.07 6.11h1.174Zm-2.28-3.553h2.791c.62 0 1.14.068 1.554.2.417.134.746.325.991.571.198.197.34.426.432.683.091.257.137.534.137.831 0 .62-.18 1.163-.537 1.623-.357.462-.917.794-1.68 1L7.796 9.96H5.533l-.982-2.24h-.909L3.04 9.96H.977l1.988-7.404Zm6.705.297h2.04l.25 4.11 2.1-4.013h1.706l.274 4.014 1.977-4.111h2.142l-3.7 7.159h-1.764l-.443-3.803-1.891 3.803h-1.994l-.697-7.16Z" fill="#2B5D89"/><path d="m21.03 11.218-.028.143-.426 1.257-1.168-4.105-.009-.046-1.045 3.96H0v.39h18.654l.008-.033-.005.031.725-1.165 1.106 3.633.077.351.788-4.022h2.183v-.39l-2.506-.004Z" fill="#FAEB28"/></svg>