<svg width="16" height="19" fill="none" xmlns="http://www.w3.org/2000/svg"><path d="M11.548 2.2 9.841 2l-.167.67c-.369.066-.737.133-1.138.2v-.067l-.57-.77-1.271.503.066.87c-.368.134-.736.335-1.07.502l-.57-.603L3.75 4.31l.469.602c-.235.201-.47.402-.67.603-.134.134-.268.267-.368.401l-.536-.502-1.104 1.44.67.401c-.269.435-.47.87-.67 1.34l-.77-.168L.234 9.9l.837.3c-.1.402-.167.838-.2 1.273l-.838.1v1.841l.837.235c.034.368.067.703.1.97l-.535.368.77 1.64 1.372.402 1.172-1.171s-1.071-6.46 2.21-8.77c3.179-2.243 5.656-2.31 5.656-2.31l.736-1.473-.803-1.104Z" fill="#1178A7"/><path d="M15.9 12.008 16 9.9l-.536-.703-1.272.067a17.671 17.671 0 0 0-.1-.703l1.372-.603-.468-.937-1.239-1.64-5.222 1.473C4.084 8.059 4.82 10.703 4.82 10.703l1.339.736 4.05-1.07c-.536 3.614-5.39 3.112-5.39 3.112l.168 4.285 1.975.535 1.105.134-.034-1.573c.201 0 .435-.067.636-.1l.235 1.439 1.037.234 1.975-.937-.736-1.674c.401-.234.77-.502 1.07-.837l.637.636.736.268 1.473-1.774-.736-.469-.77-.401a4.17 4.17 0 0 0 .502-1.54l1.807.301Z" fill="#563613"/><path d="m11.548 2.2-.736 1.373-1.507.469.536.602c-.402.1-.837.235-1.305.402l-.503-.603-1.104.47.535.568c-.401.168-.77.368-1.138.57l-.502-.637-.803.603.535.502c-.2.134-.401.268-.569.435-.133.1-.267.234-.368.368l-.468-.402-.737 1.072.536.267c-.201.335-.335.703-.469 1.072l-.602-.436L2.577 10l.636.335a8.8 8.8 0 0 0-.2 1.305l-.703-.268v.938l.602.267a11.767 11.767 0 0 0 0 1.54l-.602-.268.1 1.774 1.071.302.268.067s-1.071-6.46 2.21-8.77c3.179-2.243 5.656-2.31 5.656-2.31l.736-1.473-.803-1.238Z" fill="#09445F"/><path d="m2.243 13.783-1.841 1.27.736 1.64 1.205-1.137-.1-1.774Zm-1.406-.067L0 13.448v-1.841l2.243-.268v.904l.602.268-2.008 1.205Zm2.309-3.381-2.108-.1L.2 9.932.736 8.46l2.076.402L2.51 10l.636.335Zm.234-2.343L1.507 6.854l1.105-1.44 1.506 1.507-.736 1.07Zm1.64-1.975L3.75 4.343l1.37-1.004.57.602.635 2.11-.502-.637-.803.603Zm1.909-1.105L6.695 2.57l1.272-.502.569.736-.034 2.277-.469-.603-1.104.435Zm2.377-.837L9.84 2l1.707.2-.736 1.407-1.506.468Z" fill="#1E93D1"/><path d="m15.364 11.339.1-2.142-1.84.1c0-.536-.068-1.071-.168-1.607l1.573-.636-1.238-1.606L8.569 6.92c-4.452 1.205-3.716 3.85-3.716 3.85l5.423-1.239c.167 4.553-5.423 3.984-5.423 3.984l.168 4.284 1.975.536-.034-1.841a9.1 9.1 0 0 0 1.674-.168l.335 1.908 2.142-.937-.737-1.674a5.49 5.49 0 0 0 1.34-1.138l1.238 1.205 1.473-1.941-1.574-.804a5.382 5.382 0 0 0 .603-1.74l1.908.134Z" fill="#F99D1C"/></svg>