<svg width="58" height="9" fill="none" xmlns="http://www.w3.org/2000/svg"><path d="M4.553 4.07c.467 0 .837-.092 1.116-.278a.872.872 0 0 0 .413-.76.69.69 0 0 0-.193-.502c-.169-.172-.473-.256-.912-.256H3.862L3.374 4.07h1.179ZM2.263.502h2.803c.623 0 1.145.069 1.56.2.417.135.75.327.996.574.198.198.341.428.433.686.092.258.138.536.138.834 0 .623-.181 1.168-.54 1.63-.358.464-.92.797-1.686 1.004l1.147 2.506H4.843l-.987-2.251h-.912l-.606 2.251H.268L2.264.502Zm9.779 5.794c.31 0 .593-.069.846-.204a2.03 2.03 0 0 0 .642-.533c.175-.221.313-.465.41-.735a2.33 2.33 0 0 0 .147-.8c0-.224-.035-.433-.1-.628a1.438 1.438 0 0 0-.299-.505 1.3 1.3 0 0 0-.488-.33 1.762 1.762 0 0 0-.662-.117c-.31 0-.591.069-.84.203-.25.135-.465.316-.643.537-.178.22-.318.464-.416.734-.097.27-.146.536-.146.8 0 .224.034.433.1.628.069.196.166.362.299.505a1.3 1.3 0 0 0 .487.33c.192.075.413.115.663.115Zm-.175 1.773a3.86 3.86 0 0 1-1.391-.244A3.258 3.258 0 0 1 9.4 7.154a2.978 2.978 0 0 1-.694-1.016 3.253 3.253 0 0 1-.244-1.268c0-.545.106-1.07.316-1.574a4.245 4.245 0 0 1 2.225-2.272A4.093 4.093 0 0 1 12.71.67c.51 0 .972.083 1.391.244.419.163.777.387 1.076.671.298.287.53.625.694 1.016.163.39.244.814.244 1.267 0 .545-.106 1.07-.316 1.575a4.246 4.246 0 0 1-2.226 2.272 4.084 4.084 0 0 1-1.706.353Zm6.141-5.534h-1.902l.468-1.732h6.009l-.46 1.732h-2.139l-1.448 5.401h-1.988l1.46-5.4Zm7.222 3.761c.31 0 .594-.069.846-.204.253-.135.468-.312.643-.533.175-.221.313-.465.41-.735a2.33 2.33 0 0 0 .146-.8c0-.224-.034-.433-.1-.628a1.435 1.435 0 0 0-.298-.505 1.3 1.3 0 0 0-.488-.33 1.762 1.762 0 0 0-.662-.117c-.31 0-.591.069-.84.203-.25.135-.465.316-.643.537a2.512 2.512 0 0 0-.563 1.534c0 .224.035.433.1.628.07.196.167.362.3.505a1.3 1.3 0 0 0 .487.33c.192.075.413.115.662.115Zm-.172 1.773c-.51 0-.972-.084-1.39-.244a3.257 3.257 0 0 1-1.076-.671 2.978 2.978 0 0 1-.695-1.016 3.253 3.253 0 0 1-.243-1.268c0-.545.106-1.07.315-1.574a4.246 4.246 0 0 1 2.226-2.272A4.093 4.093 0 0 1 25.9.67c.511 0 .973.083 1.392.244a3.25 3.25 0 0 1 1.075.671c.299.287.53.625.694 1.016.164.39.244.814.244 1.267 0 .545-.106 1.07-.315 1.575a4.244 4.244 0 0 1-2.226 2.272 4.1 4.1 0 0 1-1.707.353ZM29.751.803H31.8l.253 4.127L34.16.9h1.712l.276 4.03L38.132.803h2.152l-3.715 7.185h-1.772l-.445-3.818-1.899 3.818h-2.002l-.7-7.185Zm11.287 0h1.976l-1.916 7.136h-1.976L41.038.803Zm5.452 3.425c.448 0 .806-.09 1.07-.267a.838.838 0 0 0 .399-.729.669.669 0 0 0-.184-.482c-.163-.163-.456-.246-.877-.246h-1.07l-.468 1.72h1.13v.004ZM44.296.803h2.69c.597 0 1.1.066 1.498.195.401.129.72.312.955.55.19.19.327.41.416.657.089.247.132.514.132.8 0 .597-.172 1.12-.516 1.564-.345.444-.884.766-1.618.964l1.101 2.406h-2.18l-.946-2.16h-.878l-.582 2.16H42.38L44.296.803Zm7.344 0h5.719l-.459 1.68h-3.752l-.295 1.082h3.404l-.418 1.56h-3.405l-.304 1.13h3.812l-.447 1.684h-5.769L51.64.803Z" fill="#2B5D89"/></svg>