<svg width="113" height="16" fill="none" xmlns="http://www.w3.org/2000/svg"><path d="M11.242.196 9.58 0l-.163.652c-.358.065-.716.13-1.108.195V.782l-.554-.75-1.238.49.065.847c-.358.13-.717.325-1.042.488l-.554-.586-1.336.977.456.587c-.228.196-.456.391-.652.587-.13.13-.26.26-.358.39l-.522-.488L1.5 4.725l.652.391A9.615 9.615 0 0 0 1.5 6.42l-.75-.163L.228 7.69l.815.294a7.554 7.554 0 0 0-.196 1.238l-.815.098v1.792l.815.228c.033.359.065.684.098.945l-.521.359.749 1.596 1.336.391 1.14-1.14S2.608 7.2 5.8 4.953c3.096-2.183 5.507-2.248 5.507-2.248l.717-1.434-.782-1.075Z" fill="#1178A7"/><path d="m15.479 9.743.097-2.053-.521-.684-1.238.065c-.033-.26-.066-.489-.098-.684l1.336-.587-.456-.912-1.206-1.597-5.084 1.434C3.975 5.898 4.692 8.472 4.692 8.472l1.304.717 3.943-1.042c-.522 3.519-5.247 3.03-5.247 3.03l.163 4.171 1.923.521 1.075.13-.032-1.53c.195 0 .423-.066.619-.098l.228 1.4 1.01.229 1.923-.912-.717-1.63c.39-.228.75-.489 1.043-.815l.619.62.717.26 1.433-1.727-.716-.456-.75-.391a4.06 4.06 0 0 0 .489-1.499l1.76.293Z" fill="#563613"/><path d="m11.242.195-.717 1.336-1.466.457.522.586a13.59 13.59 0 0 0-1.271.391l-.49-.586-1.075.456.522.554c-.391.163-.75.358-1.108.554l-.489-.62-.782.587.521.49c-.195.13-.39.26-.554.423-.13.097-.26.228-.358.358l-.456-.39-.717 1.042.521.26c-.195.326-.326.685-.456 1.043l-.586-.423-.294 1.075.62.326a8.568 8.568 0 0 0-.196 1.27l-.684-.26v.913l.586.26a11.458 11.458 0 0 0 0 1.5l-.586-.261.097 1.727 1.043.293.26.065S2.608 7.331 5.8 5.083c3.096-2.183 5.508-2.248 5.508-2.248l.716-1.434-.782-1.206Z" fill="#09445F"/><path d="M2.183 11.47.391 12.71l.717 1.597 1.173-1.108-.098-1.728Zm-1.368-.065L0 11.145V9.352l2.183-.26v.88l.587.26-1.955 1.173Zm2.248-3.291L1.01 8.016l-.815-.293.522-1.434 2.02.391-.293 1.108.62.326Zm.228-2.281L1.466 4.725l1.076-1.401L4.008 4.79l-.717 1.043ZM4.888 3.91 3.65 2.281l1.336-.978.554.587.619 2.053-.49-.62-.781.587Zm1.857-1.075L6.517.554 7.756.065l.554.717-.033 2.216-.456-.587-1.076.424ZM9.06 2.02 9.58 0l1.662.196-.716 1.368-1.467.456Z" fill="#1E93D1"/><path d="m14.957 9.092.098-2.086-1.792.098c0-.522-.066-1.043-.163-1.564l1.531-.62-1.205-1.564L8.342 4.79C4.008 5.963 4.725 8.538 4.725 8.538l5.279-1.206c.163 4.432-5.279 3.878-5.279 3.878l.163 4.17 1.923.522-.033-1.792a8.9 8.9 0 0 0 1.63-.163l.325 1.857 2.086-.912-.717-1.63a5.341 5.341 0 0 0 1.303-1.107l1.206 1.173 1.434-1.89-1.532-.782A5.24 5.24 0 0 0 13.1 8.96l1.857.13Z" fill="#F99D1C"/><path d="M27.731 2.77h-6.159l-2.444 10.004a.904.904 0 0 0 .652 1.108c.065.033.163.033.26.033h.978l2.184-8.93h3.78L26.428 7.3h-2.933l-.26 1.141c-.099.424.195.847.618.945.066 0 .098.033.163.033h.587l1.108 4.497h2.216l-1.271-4.563a2.29 2.29 0 0 0 1.76-1.662l.749-3.095a1.457 1.457 0 0 0-1.075-1.76c-.13-.033-.229-.065-.359-.065Zm4.79 3.943-.325 1.238h2.672a.21.21 0 0 1 .195.196v.065l-.815 3.421c-.032.098-.097.163-.195.163h-3.356a.21.21 0 0 1-.196-.195v-.033l1.401-5.735h-.423c-1.01 0-1.89.684-2.119 1.662l-1.14 4.692a1.395 1.395 0 0 0 1.043 1.695c.097.032.195.032.326.032h4.334c1.108 0 2.085-.75 2.346-1.824l1.108-4.53a1.395 1.395 0 0 0-1.043-1.694c-.098-.033-.196-.033-.293-.033H33.76c-.62-.033-1.108.358-1.239.88Zm14.795 0L46.99 7.95h2.672a.21.21 0 0 1 .196.196v.065l-.848 3.421c-.032.098-.097.163-.195.163h-3.357a.21.21 0 0 1-.195-.195v-.065L46.664 5.8h-.424c-1.01 0-1.89.685-2.118 1.662l-1.14 4.693a1.37 1.37 0 0 0 1.043 1.694c.097.033.228.033.325.033h4.334a2.41 2.41 0 0 0 2.347-1.825l1.108-4.53a1.395 1.395 0 0 0-1.043-1.694C50.998 5.8 50.9 5.8 50.77 5.8h-2.281c-.554 0-1.043.359-1.173.913Zm-6.55-.913.098-.423a.91.91 0 0 0-.685-1.108c-.065-.033-.163-.033-.228-.033h-.945l-1.922 7.951c-.196.75.26 1.5 1.01 1.662.097.033.228.033.325.033h3.39l.228-1.01c.097-.49-.196-1.01-.717-1.108-.065 0-.13-.033-.196-.033h-1.531a.223.223 0 0 1-.228-.228v-.065l.88-3.552h1.922a1.29 1.29 0 0 0 1.238-.978l.261-1.14-2.9.032Z" fill="#1E93D1"/><path d="M69.246 13.915h-1.01c-.489 0-.88-.424-.88-.913 0-.065 0-.13.033-.196l1.466-5.995c.13-.587.652-1.01 1.271-1.01h1.108l-1.988 8.114ZM54.941 11.34l1.434-5.898a.628.628 0 0 1 .62-.489h4.561c.554 0 1.043-.358 1.173-.912l.294-1.271h-6.387c-1.043 0-1.923.717-2.184 1.727l-1.857 7.723a1.35 1.35 0 0 0 .977 1.662c.13.033.261.033.392.033h3.193c.521 0 1.043-.229 1.401-.62.13.359.489.62.913.62h.912l1.173-4.888c.196-.75-.293-1.532-1.043-1.728-.097-.032-.228-.032-.325-.032h-2.151c-.75 0-1.401.521-1.564 1.238l-.228.945h2.77c.13 0 .228.098.228.228v.065l-.359 1.532a.628.628 0 0 1-.619.489h-2.998c-.163 0-.326-.13-.326-.293v-.13ZM66.444 5.8c-.456 0-.912.163-1.27.457l.097-.457h-2.118l-1.955 8.115h2.118l1.336-5.508a.695.695 0 0 1 .652-.521h1.499c.554 0 1.01-.391 1.14-.912l.294-1.206-1.793.032Zm35.65 0c-.457 0-.913.163-1.271.457l.097-.457h-2.118l-1.955 8.115h2.118l1.336-5.508a.696.696 0 0 1 .652-.521h1.499c.554 0 1.01-.391 1.141-.912l.293-1.206-1.792.032ZM71.43 4.986h-2.12l.294-1.206c.13-.587.651-.978 1.238-.978h1.108l-.521 2.184Zm6.81.814h-3.16c-.49 0-.946.229-1.239.587a.882.882 0 0 0-.847-.587h-.978l-1.694 7.006c-.098.49.195.978.684 1.076.065 0 .13.033.163.033h1.01l1.336-5.54a.626.626 0 0 1 .587-.456h3.063c.13 0 .228.097.228.228v.065l-1.108 4.595a.904.904 0 0 0 .652 1.107.705.705 0 0 0 .26.033h.978l1.5-6.257c.195-.814-.294-1.629-1.109-1.792a.55.55 0 0 0-.326-.098Zm9.45-3.356-.814 3.357h-4.139a2.299 2.299 0 0 0-2.216 1.727l-1.108 4.627a1.395 1.395 0 0 0 1.043 1.694c.098.033.228.033.326.033h2.216c.652 0 1.206-.456 1.336-1.075l.26-1.108h-2.606a.292.292 0 0 1-.293-.294v-.065l.716-2.998a.588.588 0 0 1 .554-.456h3.161c.098 0 .163.065.163.163v.033l-1.14 4.692a.87.87 0 0 0 .586 1.075.718.718 0 0 0 .26.033h1.044l3.03-12.611h-.912c-.684.033-1.304.489-1.467 1.173ZM96.065 5.8h-4.334c-1.075 0-2.053.75-2.313 1.793L88.31 12.09c-.196.782.293 1.531 1.043 1.727.097.032.228.032.325.032h6.29l.26-1.043a.904.904 0 0 0-.651-1.107c-.098-.033-.163-.033-.261-.033h-4.53c-.13 0-.195-.098-.195-.196v-.032l.75-3.03a.628.628 0 0 1 .618-.49h3.063c.13 0 .196.098.196.196v.098a.628.628 0 0 1-.62.489H93.1c-.587 0-1.108.39-1.238.977l-.294 1.173h3.292c1.075 0 2.02-.75 2.28-1.792l.36-1.531c.162-.783-.327-1.597-1.141-1.76a.902.902 0 0 1-.294.032Zm10.558 0c-1.075 0-2.02.75-2.281 1.793l-.358 1.531a1.49 1.49 0 0 0 1.075 1.792c.098.033.228.033.358.033h3.878c.098 0 .163.065.163.163v.033l-.032.162c-.066.261-.294.457-.554.457h-4.497c-.619 0-1.141.423-1.271 1.01l-.293 1.14h6.354a2.397 2.397 0 0 0 2.183-1.792l.359-1.531c.195-.782-.326-1.597-1.108-1.76-.098-.033-.228-.033-.326-.033h-3.878c-.098 0-.163-.097-.163-.195V8.57l.033-.163a.588.588 0 0 1 .554-.456h4.431c.652 0 1.206-.423 1.337-1.043l.26-1.108h-6.224Z" fill="#F99D1C"/></svg>