<svg width="60" height="82" viewBox="0 0 60 82" fill="none" xmlns="http://www.w3.org/2000/svg">
  <path d="M57.448 9.45c-2.473 1.855-7.42 4.328-13.603 2.782C32.922 9.552 29.83.175 29.83.175s-3.112 9.368-14.015 12.057c-6.276 1.546-11.13-.948-13.707-2.772H.151v50.496c0 1.34.309 3.814 2.38 6.39 2.566 3.091 6.894 5.08 12.882 5.946 4.844.69 8.347 2.195 10.82 4.596 1.855 1.763 3.607 4.813 3.607 4.813s1.804-3.112 3.566-4.813c2.494-2.4 6.03-3.896 10.821-4.596 5.998-.867 10.305-2.885 12.882-5.987 2.071-2.515 2.38-5.04 2.38-6.307V9.501h-1.968" fill="#fff"/>
  <path d="M57.654 11.408s-5.946 4.627-14.324 2.535c-9.76-2.443-13.603-9.75-13.603-9.75s-3.792 7.318-13.603 9.75c-8.244 2.06-14.221-2.576-14.221-2.576v48.537c0 1.65.69 8.657 13.809 10.512 5.163.747 9.017 2.401 11.748 5.07a15.61 15.61 0 0 1 2.329 2.824c.58-.894 1.34-1.865 2.329-2.824 2.772-2.669 6.626-4.328 11.748-5.07 13.088-1.886 13.706-8.893 13.81-10.512V11.367" fill="#013369"/>
  <path d="M29.83 73.477s3.793-4.679 13.603-6.193c11.336-1.742 10.924-7.04 10.924-7.307V34.523H5.2v25.454c0 .268-.334 5.565 10.924 7.307 9.852 1.525 13.603 6.193 13.603 6.193" fill="#fff"/>
  <path d="m18.288 53.144-.002-12.057-1.514-.85v-3.133h6.914v3.133l-1.442.85v24.63l-3.69-1.103-5.338-15.767v10.408l1.7 1.299v3.206l-7.41-1.887v-2.73l1.7-.665V41.062l-1.741-.86v-3.133h5.606l5.235 16.076M31.067 64.171l1.484 1.773v3.133l-7.348-2.742v-2.659l1.618-.664v-21.95l-1.608-.815v-3.174h12.779v6.379h-2.803l-.85-2.618h-3.246v7.379h2.433l.957-1.401h1.959v6.565h-1.959l-.922-1.33h-2.473v12.16M39.208 65.305v-3.133l1.824-1.495v-19.58l-1.556-.815v-3.174h7.348v3.174l-1.443.815v18.447l3.164-.854.606-4.823h3.02v8.059l-12.985 3.463" fill="#D50A0A"/>
  <path d="m6.488 29.34-2.226-1.67h2.721l.898-2.576.897 2.576h2.72l-2.225 1.68.818 2.617-2.216-1.556-2.215 1.556.818-2.617M16.124 29.34l-2.226-1.67h2.72l.898-2.576.898 2.576h2.72l-2.226 1.68.818 2.617-2.215-1.556-2.216 1.556.818-2.617M6.488 20.683l-2.226-1.67h2.721l.898-2.576.897 2.576h2.72l-2.225 1.68.818 2.617-2.216-1.555L5.66 23.31l.818-2.617M16.124 20.683l-2.226-1.67h2.72l.898-2.576.898 2.576h2.72l-2.226 1.68.818 2.617-2.215-1.555-2.216 1.555.818-2.617M53.945 31.916l-2.216-1.556-2.216 1.556.818-2.618-2.226-1.68h2.72l.898-2.576.898 2.576h2.72l-2.226 1.68.82 2.618M44.257 31.916l-2.215-1.556-2.216 1.556.818-2.618-2.226-1.68h2.72l.898-2.576.898 2.576h2.721l-2.226 1.68.82 2.618M53.945 23.259l-2.216-1.556-2.216 1.556.818-2.618-2.226-1.68h2.72l.898-2.576.898 2.577h2.72l-2.226 1.68.82 2.617M44.257 23.259l-2.215-1.556-2.216 1.556.818-2.618-2.226-1.68h2.72l.898-2.576.898 2.577h2.721l-2.226 1.68.82 2.617" fill="#fff"/>
  <path fill-rule="evenodd" clip-rule="evenodd" d="M33.138 15.819c1.607-1.584 2.762-2.185 2.762-2.185l-.015-.005c.228-.02.362.262.431.433.982 2.421 1.221 5.39.49 8.223-1.135 4.318-4.752 8.313-12.574 9.326-.167.022-.374-.03-.393-.132a29.494 29.494 0 0 1 3.143-8.11c.375.208.715.436 1.05.7.076-.13.171-.283.297-.484l.2-.321a7.46 7.46 0 0 0-3.319-1.525s-.24.462-.413.825c0 0 .483.087 1.072.298-1.692 3.607-2.263 6.966-2.422 8.481-.478-.773-.854-2.536-.987-3.504-1.237-9.11 5.328-14.438 12.47-14.53.484-.006.667.083.667.083s-1.577.598-3.39 1.979c0 0-.44-.179-.893-.294-.294.191-.592.39-.872.59a7.536 7.536 0 0 1 2.978 1.505c.23-.219.48-.451.722-.667a7.668 7.668 0 0 0-1.004-.686Zm-4.524 1.308a7.704 7.704 0 0 1 3.277 1.598l.004-.003c.222-.246.456-.487.697-.734a7.591 7.591 0 0 0-3.143-1.577 37 37 0 0 1-.173.143c-.211.174-.439.362-.662.573Zm-1.546 1.67a7.677 7.677 0 0 1 3.39 1.649l.007-.004c.2-.263.412-.538.639-.81-1.113-.919-2.387-1.442-3.38-1.619-.224.254-.457.527-.656.784Zm2.102 3.452v-.001c.176-.262.373-.546.581-.843a7.656 7.656 0 0 0-3.39-1.628c-.203.301-.56.885-.56.885a7.413 7.413 0 0 1 3.369 1.587Z" fill="#fff"/>
</svg>
